<?xml version="1.0" encoding="UTF-8"?>
<!-- Do not edit this file with editors other than diagrams.net -->
<!DOCTYPE svg PUBLIC "-//W3C//DTD SVG 1.1//EN" "http://www.w3.org/Graphics/SVG/1.1/DTD/svg11.dtd">
<svg xmlns="http://www.w3.org/2000/svg" xmlns:xlink="http://www.w3.org/1999/xlink" version="1.1" width="899px" height="658px" viewBox="-0.5 -0.5 899 658" content="&lt;mxfile host=&quot;app.diagrams.net&quot; modified=&quot;2022-07-17T15:53:02.991Z&quot; agent=&quot;5.0 (Macintosh; Intel Mac OS X 10_15_7) AppleWebKit/537.36 (KHTML, like Gecko) Chrome/103.0.0.0 Safari/537.36&quot; etag=&quot;5A3y17n-V70DlgM0ee7C&quot; version=&quot;20.1.1&quot; type=&quot;google&quot;&gt;&lt;diagram id=&quot;R2lEEEUBdFMjLlhIrx00&quot; name=&quot;Page-1&quot;&gt;7V1tc9q4Fv41zNz90A5+4+Vjycu202S3m03vzX7KqFgBb41FZZFAfv2VbAuMJRsZsAHLM5kWy0LYOo/Oo/PoyO5YV7Pl7xjMp/fIhX7H7LrLjnXdMU3D6PXof6xkFZf0enZcMMGeGxd1NwV/e+8wLlyXLjwXhklrcRFByCfefLtwjIIAjslWGcAYvW1Xe0G+u1UwBxMoFPw9Br5Y+j/PJdO4dNjtbso/Q28y5b/c42d+gPHPCUaLIPm9AAUwPjMDvJmkajgFLnrbKoJLcosCklz8N4hnIIABoWfuAf4Jcce5mRLC+uBTx7ylfy+s9scJQhMfgrkXfhyjGS0eh7TK7QuYeT4zQKqhUdIQ/TnrpmNdYYRI/Gm2vII+s+K2gW5zzq57CLN2Fb5w9eF1dfezS4LPb9Z/yf395Fv/x4eklVfgL5KeT/qGrLgpoEstkxzSn/LI6gH6gHgouNmcGcHA/cTsTivdPLxDjB7RPQjozY9CAjDZnGP2iKrfevTyrGuDV0mOu/RYvLXkOkO0wGNYcD9mAnPa4ASSgorJ+GA3l/qFpOd+h2gGCV7RCm8b9BkcY9M08nghjjrldRu/IEHSZN3g+je+IS8CVjJkLTtpJxmwfQ5J3kR868m30mbONGRnGuplG4q7RmiIfkjd+KYoQlEZRJlnCSn6M3j1lJyMDv5hZz46/PB6ma55veJHS488pT6nvkWPNl9iB6uD4Wuowtc6M/j2TGcLdcYg04QqfPvD/lZD63FRE3xF9C5CiMPnkCzc1TNjFur9s3imTDJnHwn4ESE3Al9CqhZDBKVJAryA+v0YgGPk+2AeelH1uGTq+e4dWKEF4Q3xo9GLt4TuQ8yprC7F/R1tLEzgxjiIjyZ2GvjeJKCfxxR+7BdHGIb0Wu5ASJIauQB9hZjAZSGiuL+ytg0+iI9SeDMdGd5MKx9aW7Ysazhrt9vhZqI3TjzgP9CJCwgmkcW2DcJ61cVo/siHISuYM8hBfPMK4wlC1PXUwVwhHzG7BrEbiqpFN+eM6B/tgyvmLxx6AVf02Ngc0z9WHZMrFIQEAy8yBqRmeoPMVCOC5snv+PCFXwZOOpN9/oEIofONPKMWAny3pfkI7KqZ1upWZFlbsOy3r2Vsi+i9vvgRV0w914VBPCDZvBVs7C0xpbT/132eNUZ2GCraw1K2R8oAVsn+Txrb9Erp1oBPsR8AAkdsbh1W4Xodwc60+pXZ+dSNGeKPPx/Zv9/v7jrrKfw5AYD73bjuKJyDsRdM7uJv9jIIcapAyLKTO2LNoyJGqbkaINPT2enLp5rHcfq9Uzv9vmDZ269GGePWNOgVDdBTNkDTvfxAOsF+pt8xJX7+7Oy908kfHRDaOfVh69SrcepDVadeEP4f5NSNrsSrl7LueXn1obIFdvnh3YJLGa+eaa2GMWuIQnJKMdHOu6sDo6x33xsoSs3VgRRRqGm1tW0w9OxkdlBSW3OqmowbogSjESWXEHMM9Vj9XNQ1Q5RdmiSvraHbRl6GqJZkOLoV28rgRbvAzBBFGY1ooERcUJ4GTq63GaIuc4ajXrX/+8r933inL6opAZjByLCYekxdIrISkNDOr/PLaP360f26suRWlV83RWHmDEe5Yv+vgdr6dW7GlF1dGI6xN2dpdCn3fna2PpZHLwGGJnv0L0/mv/D2J3r60P/Vf5wHX+7//LfMunhk2wdm9dEUYe+dqWk8aTKttUXHb97MBwH8DIGbKRohd5WPEFWKOJ3vF1CkTAe5vt8wa3T+UhgcGq8dfexD1+PtGTkeR8kc+aBvNBNIb1sM3MYY0l90n136Lz2T/LffNP8UBFALLJrMCXK+FBdeotTmYmboaLHiwpcvuSgvWXHpGaIVzX5l0/Z2xUVxFniUFReZcasLyZq94mK2Ky7rrhDn4UXJbjqts5RASQFTWyXH7Q6mVmmuDti06yxVOX/ZOku9zr9J6yxmu86y7gpxneXFwyF5TlZbxlOA/+N0f9s7EDsXf398aDTZv0sjUlG6zQVCq87trc6ZxeqcbGWmKiaQouDQDauXJc6ZjacF6W2LYbwPjkgKl6/O5eBCO06QJNC3pFA7KUiXbGplBZXHpzSIFozmhwvy+xbZH86A5+eTQvf7H1/++n6jFzvkwUM/ehA145Ye6qcH5+T0cOgTDy6MHhxN6UFUgNnCQXHYoCdD5CBEP4YosW2+ZYjKGGJwaoY4OJn7whhiqCdDSPK65yAM3xB2OUOYjs7CUh4wtCMGSd5XSwy1E4NpnJwYDk0puyxiyLNH44lBVArmGFFbwWdvxp66vt4aEu321osU8kChHymUSDFqSaEyUrBPTgqHpSNdHCn0NSUFURzgm0QAy0Il3owODDCbaxww5GFDO26wRAXh18J7f4dN2SqyAx3Fa07bryew+WPw03a0+6IdDb6Cc/w8ojZzQI3KlQFQMCpyqVzmHmQ4qC6dzBRgUG5XSQ07SI7rsC1NcwcsUdBh/vnwh2yew/aReiBSwOlGyUG7g9NVmqsDMyXEH61JQjne24ckZLtP6iWJEmkkDQj3YtRryBBilkiwmD3/WtDR4NEhclEMUQ8k9GOEVgE8A0aQ7UKRMYJZWfSolwBo7ScAFnV/eUbItlbHaM99DOQmmUwrGigv9sn89v64UGqujg1KsmByPU1o5b4e11W44De01Dy2YVflsu02lqtD8LOL1+5OLvjZhz5G5uIEP1vTcM4Wwznuo1vRTx0m2oV4dhvi1RHi7SAKVdGPp2Icnyj0CvHsPUO8gu7fI8TLtFbHaBdDPM4SnXXO3yWxRD2wKBvx7Q0TpeZqwAnfw9iywilZYSB5xKiUFfoVsYJz2IsBLo0VnBwddpcfL+j+PVgh01odo90UzAyC8A3ilhPyQVGWE/YGiVJzdaCklZTOgBPWOYIn05QcvfIDHE0FJUcUlKhVvHHLCfmY0E49ckT1KEkDf25XiNKI4LZJvLhjS1aIpO9r5s71+G68hOKjNZ0ftkLk5EgKJ3i1s/z6REWo4StEMfD1I/SeqOm0C0PK6Gjyq4DkcGm3DNUR7u3ghzrf+SyHgagN3X41Tuwjqn1FnKZbhnr5WV6XmUFQDyz0I4ZWBzwDYqjzpdFyGIgy4O3XRiuBPU2VwJ4stexS95LWAwntSKEvBpcCEqA7gTxwo93qkdUD9AGbX9xszsThXcwKhsl4g8z8ZDjDwP2EcWS7m4d3iNEjugfBKj5z6/m8XsQsOTUx6wLICYZeBl49pQ/+YQcfHX54vUyfvOYsBJceeeJXRT+nvkWPNl9iB/w7cX+wTsjFGJ9XowUew4Le5o9zIJzjDnBZRlcmO/JCHFnodfuSC2D6DcUOIRkAJs9D57pn9mWo8a0m39rAUmjIyjRkZxuKu0Jo6Gj4VoiGzxHfp8VpTxWnClnbleLU6Ztb8LL46ldZnPbszFuC+1a9OBXD9ehtou3DeTauhK98rJ+6aYosLVtfM4pwddBcui+G3sWW0jWkOmwtJh4cpdZiyi7bHgYDMbJu+FpMX9MHsPbF4Pkio6lq12Ly0JEfXRmDo6ZZKDVXB1xKvNFFa344THLbwQ+ytZh6+UHMtmn4WkwMfA35QUzOiabxF0kS9UBCP1JoX+ZzBqQgW4eplRQGovLa8HWYvqav8xmIGmS7DlMMCe1IYSAGliFZuKvnCUaLeSsDppRaIyMD2soyYGWuvA3z6pABBzmvgzwXGXAghnkNlwEHmoZ5AzHMu0gyr1YGzEOHfuTeRnx1RHw7+OHkMuBQFvE1WgYcaBrxDcWILz2bv0iuqAcZ2nHD0Gy54fTccHI1cChmkjRcDRzm6LON5wYxWaRVA4shoR8pKAQMalmr+ampmWTUGB6SfNXkOPIHe2Sl7pupHd9v2WxW+YtakxG3M5tVYdW62qzrTDarwZOnS2dd83cB5TVUcTbrukPODcAcjEY5MHLgd0sAfz8AF64Y7wSwwlvzqgUwj7G5JGvuC2DTKm6ocgDrs2+gXg992L4YhUljpQDP5qDbfJt9WYDbRmakDDINVQ5whbjzHAF+oAevfkONdApiqE5BFBSzajfUcOmKzxyyr63Zd0ONOchcy94Ap4cYIZKujsF8eo9cyGr8Hw==&lt;/diagram&gt;&lt;/mxfile&gt;" style="background-color: rgb(255, 255, 255);"><defs><clipPath id="mx-clip-328-30-30-30-0"><rect x="328" y="30" width="30" height="30"/></clipPath><clipPath id="mx-clip-364-30-214-30-0"><rect x="364" y="30" width="214" height="30"/></clipPath><clipPath id="mx-clip-328-60-30-30-0"><rect x="328" y="60" width="30" height="30"/></clipPath><clipPath id="mx-clip-364-60-214-30-0"><rect x="364" y="60" width="214" height="30"/></clipPath><clipPath id="mx-clip-328-90-30-31-0"><rect x="328" y="90" width="30" height="31"/></clipPath><clipPath id="mx-clip-364-90-214-31-0"><rect x="364" y="90" width="214" height="31"/></clipPath><clipPath id="mx-clip-639-30-30-30-0"><rect x="639" y="30" width="30" height="30"/></clipPath><clipPath id="mx-clip-675-30-214-30-0"><rect x="675" y="30" width="214" height="30"/></clipPath><clipPath id="mx-clip-675-60-214-30-0"><rect x="675" y="60" width="214" height="30"/></clipPath><clipPath id="mx-clip-675-90-214-30-0"><rect x="675" y="90" width="214" height="30"/></clipPath><clipPath id="mx-clip-675-120-214-30-0"><rect x="675" y="120" width="214" height="30"/></clipPath><clipPath id="mx-clip-4-60-30-30-0"><rect x="4" y="60" width="30" height="30"/></clipPath><clipPath id="mx-clip-40-60-225-30-0"><rect x="40" y="60" width="225" height="30"/></clipPath><clipPath id="mx-clip-40-90-225-30-0"><rect x="40" y="90" width="225" height="30"/></clipPath><clipPath id="mx-clip-40-120-225-30-0"><rect x="40" y="120" width="225" height="30"/></clipPath><clipPath id="mx-clip-40-150-225-30-0"><rect x="40" y="150" width="225" height="30"/></clipPath><clipPath id="mx-clip-40-180-225-30-0"><rect x="40" y="180" width="225" height="30"/></clipPath><clipPath id="mx-clip-40-210-225-30-0"><rect x="40" y="210" width="225" height="30"/></clipPath><clipPath id="mx-clip-40-240-225-30-0"><rect x="40" y="240" width="225" height="30"/></clipPath><clipPath id="mx-clip-40-270-225-30-0"><rect x="40" y="270" width="225" height="30"/></clipPath><clipPath id="mx-clip-0-457-30-30-0"><rect x="0" y="457" width="30" height="30"/></clipPath><clipPath id="mx-clip-36-457-211-30-0"><rect x="36" y="457" width="211" height="30"/></clipPath><clipPath id="mx-clip-36-487-211-30-0"><rect x="36" y="487" width="211" height="30"/></clipPath><clipPath id="mx-clip-36-517-211-25-0"><rect x="36" y="517" width="211" height="25"/></clipPath><clipPath id="mx-clip-625-515-30-30-0"><rect x="625" y="515" width="30" height="30"/></clipPath><clipPath id="mx-clip-661-515-211-30-0"><rect x="661" y="515" width="211" height="30"/></clipPath><clipPath id="mx-clip-661-545-211-28-0"><rect x="661" y="545" width="211" height="28"/></clipPath><clipPath id="mx-clip-661-573-211-27-0"><rect x="661" y="573" width="211" height="27"/></clipPath><clipPath id="mx-clip-661-600-211-30-0"><rect x="661" y="600" width="211" height="30"/></clipPath><clipPath id="mx-clip-323-565-30-30-0"><rect x="323" y="565" width="30" height="30"/></clipPath><clipPath id="mx-clip-359-565-214-30-0"><rect x="359" y="565" width="214" height="30"/></clipPath><clipPath id="mx-clip-323-595-30-30-0"><rect x="323" y="595" width="30" height="30"/></clipPath><clipPath id="mx-clip-359-595-214-30-0"><rect x="359" y="595" width="214" height="30"/></clipPath><clipPath id="mx-clip-323-625-30-30-0"><rect x="323" y="625" width="30" height="30"/></clipPath><clipPath id="mx-clip-359-625-214-30-0"><rect x="359" y="625" width="214" height="30"/></clipPath><clipPath id="mx-clip-351-234-30-30-0"><rect x="351" y="234" width="30" height="30"/></clipPath><clipPath id="mx-clip-387-234-181-30-0"><rect x="387" y="234" width="181" height="30"/></clipPath><clipPath id="mx-clip-351-264-30-30-0"><rect x="351" y="264" width="30" height="30"/></clipPath><clipPath id="mx-clip-387-264-181-30-0"><rect x="387" y="264" width="181" height="30"/></clipPath><clipPath id="mx-clip-351-294-30-30-0"><rect x="351" y="294" width="30" height="30"/></clipPath><clipPath id="mx-clip-387-294-181-30-0"><rect x="387" y="294" width="181" height="30"/></clipPath><clipPath id="mx-clip-611-264-30-30-0"><rect x="611" y="264" width="30" height="30"/></clipPath><clipPath id="mx-clip-647-264-181-30-0"><rect x="647" y="264" width="181" height="30"/></clipPath><clipPath id="mx-clip-611-294-30-30-0"><rect x="611" y="294" width="30" height="30"/></clipPath><clipPath id="mx-clip-647-294-181-30-0"><rect x="647" y="294" width="181" height="30"/></clipPath><clipPath id="mx-clip-611-324-30-30-0"><rect x="611" y="324" width="30" height="30"/></clipPath><clipPath id="mx-clip-647-324-181-30-0"><rect x="647" y="324" width="181" height="30"/></clipPath><style type="text/css">@import url(https://fonts.googleapis.com/css?family=Permanent+Marker);&#xa;</style></defs><g><path d="M 265 75 L 285 75 Q 295 75 296.5 75 L 297.25 75 Q 298 75 308 75 L 328 75" fill="none" stroke="rgb(0, 0, 0)" stroke-miterlimit="10" pointer-events="stroke"/><path d="M 269 71 L 269 79" fill="none" stroke="rgb(0, 0, 0)" stroke-miterlimit="10" pointer-events="all"/><ellipse cx="316" cy="75" rx="3" ry="3" fill="#ffffff" stroke="rgb(0, 0, 0)" pointer-events="all"/><path d="M 328 71 L 320 75 L 328 79" fill="none" stroke="rgb(0, 0, 0)" stroke-miterlimit="10" pointer-events="all"/><path d="M 639 45 L 619 45 Q 609 45 608.5 45 L 608.25 45 Q 608 45 598 45 L 578 45" fill="none" stroke="rgb(0, 0, 0)" stroke-miterlimit="10" pointer-events="stroke"/><path d="M 635 49 L 635 41" fill="none" stroke="rgb(0, 0, 0)" stroke-miterlimit="10" pointer-events="all"/><ellipse cx="590" cy="45" rx="3" ry="3" fill="#ffffff" stroke="rgb(0, 0, 0)" pointer-events="all"/><path d="M 578 49 L 586 45 L 578 41" fill="none" stroke="rgb(0, 0, 0)" stroke-miterlimit="10" pointer-events="all"/><path d="M 328 30 L 328 0 L 578 0 L 578 30" fill="rgb(255, 255, 255)" stroke="rgb(0, 0, 0)" stroke-miterlimit="10" pointer-events="all"/><path d="M 328 30 L 328 123 L 578 123 L 578 30" fill="none" stroke="rgb(0, 0, 0)" stroke-miterlimit="10" pointer-events="none"/><path d="M 328 30 L 578 30" fill="none" stroke="rgb(0, 0, 0)" stroke-miterlimit="10" pointer-events="none"/><path d="M 358 30 L 358 60 L 358 90 L 358 121" fill="none" stroke="rgb(0, 0, 0)" stroke-miterlimit="10" pointer-events="none"/><g fill="rgb(0, 0, 0)" font-family="Helvetica" font-weight="bold" pointer-events="none" text-anchor="middle" font-size="12px"><text x="452.5" y="19.5">users_study_groups</text></g><path d="M 328 30 M 578 30 M 578 60 L 328 60" fill="none" stroke="rgb(0, 0, 0)" stroke-linecap="square" stroke-miterlimit="10" pointer-events="none"/><path d="M 328 30 M 358 30 M 358 60 M 328 60" fill="none" stroke="rgb(0, 0, 0)" stroke-linecap="square" stroke-miterlimit="10" pointer-events="none"/><g fill="rgb(0, 0, 0)" font-family="Helvetica" font-weight="bold" pointer-events="none" clip-path="url(#mx-clip-328-30-30-30-0)" text-anchor="middle" font-size="12px"><text x="342.5" y="49.5">PK</text></g><path d="M 358 30 M 578 30 M 578 60 M 358 60" fill="none" stroke="rgb(0, 0, 0)" stroke-linecap="square" stroke-miterlimit="10" pointer-events="none"/><g fill="rgb(0, 0, 0)" font-family="Helvetica" font-weight="bold" text-decoration="underline" pointer-events="none" clip-path="url(#mx-clip-364-30-214-30-0)" font-size="12px"><text x="365.5" y="49.5">id int NOT NULL </text></g><path d="M 328 60 M 578 60 M 578 90 M 328 90" fill="none" stroke="rgb(0, 0, 0)" stroke-linecap="square" stroke-miterlimit="10" pointer-events="none"/><path d="M 328 60 M 358 60 M 358 90 M 328 90" fill="none" stroke="rgb(0, 0, 0)" stroke-linecap="square" stroke-miterlimit="10" pointer-events="none"/><g fill="rgb(0, 0, 0)" font-family="Helvetica" pointer-events="none" clip-path="url(#mx-clip-328-60-30-30-0)" text-anchor="middle" font-size="12px"><text x="342.5" y="79.5">FK1</text></g><path d="M 358 60 M 578 60 M 578 90 M 358 90" fill="none" stroke="rgb(0, 0, 0)" stroke-linecap="square" stroke-miterlimit="10" pointer-events="none"/><g fill="rgb(0, 0, 0)" font-family="Helvetica" pointer-events="none" clip-path="url(#mx-clip-364-60-214-30-0)" font-size="12px"><text x="365.5" y="79.5">user_id int NOT NULL</text></g><path d="M 328 90 M 578 90 M 578 121 M 328 121" fill="none" stroke="rgb(0, 0, 0)" stroke-linecap="square" stroke-miterlimit="10" pointer-events="none"/><path d="M 328 90 M 358 90 M 358 121 M 328 121" fill="none" stroke="rgb(0, 0, 0)" stroke-linecap="square" stroke-miterlimit="10" pointer-events="none"/><g fill="rgb(0, 0, 0)" font-family="Helvetica" pointer-events="none" clip-path="url(#mx-clip-328-90-30-31-0)" text-anchor="middle" font-size="12px"><text x="342.5" y="110">FK2</text></g><path d="M 358 90 M 578 90 M 578 121 M 358 121" fill="none" stroke="rgb(0, 0, 0)" stroke-linecap="square" stroke-miterlimit="10" pointer-events="none"/><g fill="rgb(0, 0, 0)" font-family="Helvetica" pointer-events="none" clip-path="url(#mx-clip-364-90-214-31-0)" font-size="12px"><text x="365.5" y="110">study_group_id int NOT NULL</text></g><path d="M 639 30 L 639 0 L 889 0 L 889 30" fill="rgb(255, 255, 255)" stroke="rgb(0, 0, 0)" stroke-miterlimit="10" pointer-events="none"/><path d="M 639 30 L 639 150 L 889 150 L 889 30" fill="none" stroke="rgb(0, 0, 0)" stroke-miterlimit="10" pointer-events="none"/><path d="M 639 30 L 889 30" fill="none" stroke="rgb(0, 0, 0)" stroke-miterlimit="10" pointer-events="none"/><path d="M 669 30 L 669 60 L 669 90 L 669 120 L 669 150" fill="none" stroke="rgb(0, 0, 0)" stroke-miterlimit="10" pointer-events="none"/><g fill="rgb(0, 0, 0)" font-family="Helvetica" font-weight="bold" pointer-events="none" text-anchor="middle" font-size="12px"><text x="763.5" y="19.5">study_groups</text></g><path d="M 639 30 M 889 30 M 889 60 L 639 60" fill="none" stroke="rgb(0, 0, 0)" stroke-linecap="square" stroke-miterlimit="10" pointer-events="none"/><path d="M 639 30 M 669 30 M 669 60 M 639 60" fill="none" stroke="rgb(0, 0, 0)" stroke-linecap="square" stroke-miterlimit="10" pointer-events="none"/><g fill="rgb(0, 0, 0)" font-family="Helvetica" font-weight="bold" pointer-events="none" clip-path="url(#mx-clip-639-30-30-30-0)" text-anchor="middle" font-size="12px"><text x="653.5" y="49.5">PK</text></g><path d="M 669 30 M 889 30 M 889 60 M 669 60" fill="none" stroke="rgb(0, 0, 0)" stroke-linecap="square" stroke-miterlimit="10" pointer-events="none"/><g fill="rgb(0, 0, 0)" font-family="Helvetica" font-weight="bold" text-decoration="underline" pointer-events="none" clip-path="url(#mx-clip-675-30-214-30-0)" font-size="12px"><text x="676.5" y="49.5">study_group_id int NOT NULL </text></g><path d="M 639 60 M 889 60 M 889 90 M 639 90" fill="none" stroke="rgb(0, 0, 0)" stroke-linecap="square" stroke-miterlimit="10" pointer-events="none"/><path d="M 639 60 M 669 60 M 669 90 M 639 90" fill="none" stroke="rgb(0, 0, 0)" stroke-linecap="square" stroke-miterlimit="10" pointer-events="none"/><path d="M 669 60 M 889 60 M 889 90 M 669 90" fill="none" stroke="rgb(0, 0, 0)" stroke-linecap="square" stroke-miterlimit="10" pointer-events="none"/><g fill="rgb(0, 0, 0)" font-family="Helvetica" pointer-events="none" clip-path="url(#mx-clip-675-60-214-30-0)" font-size="12px"><text x="676.5" y="79.5">name string NOT NULL</text></g><path d="M 639 90 M 889 90 M 889 120 M 639 120" fill="none" stroke="rgb(0, 0, 0)" stroke-linecap="square" stroke-miterlimit="10" pointer-events="none"/><path d="M 639 90 M 669 90 M 669 120 M 639 120" fill="none" stroke="rgb(0, 0, 0)" stroke-linecap="square" stroke-miterlimit="10" pointer-events="none"/><path d="M 669 90 M 889 90 M 889 120 M 669 120" fill="none" stroke="rgb(0, 0, 0)" stroke-linecap="square" stroke-miterlimit="10" pointer-events="none"/><g fill="rgb(0, 0, 0)" font-family="Helvetica" pointer-events="none" clip-path="url(#mx-clip-675-90-214-30-0)" font-size="12px"><text x="676.5" y="109.5">description string</text></g><path d="M 639 120 M 669 120 M 669 150 M 639 150" fill="none" stroke="rgb(0, 0, 0)" stroke-linecap="square" stroke-miterlimit="10" pointer-events="none"/><path d="M 669 120 M 889 120 M 889 150 M 669 150" fill="none" stroke="rgb(0, 0, 0)" stroke-linecap="square" stroke-miterlimit="10" pointer-events="none"/><g fill="rgb(0, 0, 0)" font-family="Helvetica" pointer-events="none" clip-path="url(#mx-clip-675-120-214-30-0)" font-size="12px"><text x="676.5" y="139.5">created_date date NOT NULL</text></g><path d="M 4 60 L 4 30 L 265 30 L 265 60" fill="rgb(255, 255, 255)" stroke="rgb(0, 0, 0)" stroke-miterlimit="10" pointer-events="none"/><path d="M 4 60 L 4 300 L 265 300 L 265 60" fill="none" stroke="rgb(0, 0, 0)" stroke-miterlimit="10" pointer-events="none"/><path d="M 4 60 L 265 60" fill="none" stroke="rgb(0, 0, 0)" stroke-miterlimit="10" pointer-events="none"/><path d="M 34 60 L 34 90 L 34 120 L 34 150 L 34 180 L 34 210 L 34 240 L 34 270 L 34 300" fill="none" stroke="rgb(0, 0, 0)" stroke-miterlimit="10" pointer-events="none"/><g fill="rgb(0, 0, 0)" font-family="Helvetica" font-weight="bold" pointer-events="none" text-anchor="middle" font-size="12px"><text x="134" y="49.5">users</text></g><path d="M 4 60 M 265 60 M 265 90 L 4 90" fill="none" stroke="rgb(0, 0, 0)" stroke-linecap="square" stroke-miterlimit="10" pointer-events="none"/><path d="M 4 60 M 34 60 M 34 90 M 4 90" fill="none" stroke="rgb(0, 0, 0)" stroke-linecap="square" stroke-miterlimit="10" pointer-events="none"/><g fill="rgb(0, 0, 0)" font-family="Helvetica" font-weight="bold" pointer-events="none" clip-path="url(#mx-clip-4-60-30-30-0)" text-anchor="middle" font-size="12px"><text x="18.5" y="79.5">PK</text></g><path d="M 34 60 M 265 60 M 265 90 M 34 90" fill="none" stroke="rgb(0, 0, 0)" stroke-linecap="square" stroke-miterlimit="10" pointer-events="none"/><g fill="rgb(0, 0, 0)" font-family="Helvetica" font-weight="bold" text-decoration="underline" pointer-events="none" clip-path="url(#mx-clip-40-60-225-30-0)" font-size="12px"><text x="41.5" y="79.5">user_id int NOT NULL </text></g><path d="M 4 90 M 265 90 M 265 120 M 4 120" fill="none" stroke="rgb(0, 0, 0)" stroke-linecap="square" stroke-miterlimit="10" pointer-events="none"/><path d="M 4 90 M 34 90 M 34 120 M 4 120" fill="none" stroke="rgb(0, 0, 0)" stroke-linecap="square" stroke-miterlimit="10" pointer-events="none"/><path d="M 34 90 M 265 90 M 265 120 M 34 120" fill="none" stroke="rgb(0, 0, 0)" stroke-linecap="square" stroke-miterlimit="10" pointer-events="none"/><g fill="rgb(0, 0, 0)" font-family="Helvetica" pointer-events="none" clip-path="url(#mx-clip-40-90-225-30-0)" font-size="12px"><text x="41.5" y="109.5">first_name char(50) NOT NULL</text></g><path d="M 4 120 M 34 120 M 34 150 M 4 150" fill="none" stroke="rgb(0, 0, 0)" stroke-linecap="square" stroke-miterlimit="10" pointer-events="none"/><path d="M 34 120 M 265 120 M 265 150 M 34 150" fill="none" stroke="rgb(0, 0, 0)" stroke-linecap="square" stroke-miterlimit="10" pointer-events="none"/><g fill="rgb(0, 0, 0)" font-family="Helvetica" pointer-events="none" clip-path="url(#mx-clip-40-120-225-30-0)" font-size="12px"><text x="41.5" y="139.5">last_name char(50) NOT NULL</text></g><path d="M 4 150 M 34 150 M 34 180 M 4 180" fill="none" stroke="rgb(0, 0, 0)" stroke-linecap="square" stroke-miterlimit="10" pointer-events="none"/><path d="M 34 150 M 265 150 M 265 180 M 34 180" fill="none" stroke="rgb(0, 0, 0)" stroke-linecap="square" stroke-miterlimit="10" pointer-events="none"/><g fill="rgb(0, 0, 0)" font-family="Helvetica" pointer-events="none" clip-path="url(#mx-clip-40-150-225-30-0)" font-size="12px"><text x="41.5" y="169.5">email char(50) NOT NULL UNIQUE</text></g><path d="M 4 180 M 34 180 M 34 210 M 4 210" fill="none" stroke="rgb(0, 0, 0)" stroke-linecap="square" stroke-miterlimit="10" pointer-events="none"/><path d="M 34 180 M 265 180 M 265 210 M 34 210" fill="none" stroke="rgb(0, 0, 0)" stroke-linecap="square" stroke-miterlimit="10" pointer-events="none"/><g fill="rgb(0, 0, 0)" font-family="Helvetica" pointer-events="none" clip-path="url(#mx-clip-40-180-225-30-0)" font-size="12px"><text x="41.5" y="199.5">username char(50) NOT NULL UNIQUE</text></g><path d="M 4 210 M 34 210 M 34 240 M 4 240" fill="none" stroke="rgb(0, 0, 0)" stroke-linecap="square" stroke-miterlimit="10" pointer-events="none"/><path d="M 34 210 M 265 210 M 265 240 M 34 240" fill="none" stroke="rgb(0, 0, 0)" stroke-linecap="square" stroke-miterlimit="10" pointer-events="none"/><g fill="rgb(0, 0, 0)" font-family="Helvetica" pointer-events="none" clip-path="url(#mx-clip-40-210-225-30-0)" font-size="12px"><text x="41.5" y="229.5">password char(25) NOT NULL</text></g><path d="M 4 240 M 34 240 M 34 270 M 4 270" fill="none" stroke="rgb(0, 0, 0)" stroke-linecap="square" stroke-miterlimit="10" pointer-events="none"/><path d="M 34 240 M 265 240 M 265 270 M 34 270" fill="none" stroke="rgb(0, 0, 0)" stroke-linecap="square" stroke-miterlimit="10" pointer-events="none"/><g fill="rgb(0, 0, 0)" font-family="Helvetica" pointer-events="none" clip-path="url(#mx-clip-40-240-225-30-0)" font-size="12px"><text x="41.5" y="259.5">profile_image string </text></g><path d="M 4 270 M 34 270 M 34 300 M 4 300" fill="none" stroke="rgb(0, 0, 0)" stroke-linecap="square" stroke-miterlimit="10" pointer-events="none"/><path d="M 34 270 M 265 270 M 265 300 M 34 300" fill="none" stroke="rgb(0, 0, 0)" stroke-linecap="square" stroke-miterlimit="10" pointer-events="none"/><g fill="rgb(0, 0, 0)" font-family="Helvetica" pointer-events="none" clip-path="url(#mx-clip-40-270-225-30-0)" font-size="12px"><text x="41.5" y="289.5">created_at timestamp NOT NULL</text></g><path d="M 0 457 L 0 427 L 247 427 L 247 457" fill="rgb(255, 255, 255)" stroke="rgb(0, 0, 0)" stroke-miterlimit="10" pointer-events="none"/><path d="M 0 457 L 0 542 L 247 542 L 247 457" fill="none" stroke="rgb(0, 0, 0)" stroke-miterlimit="10" pointer-events="none"/><path d="M 0 457 L 247 457" fill="none" stroke="rgb(0, 0, 0)" stroke-miterlimit="10" pointer-events="none"/><path d="M 30 457 L 30 487 L 30 517 L 30 542" fill="none" stroke="rgb(0, 0, 0)" stroke-miterlimit="10" pointer-events="none"/><g fill="rgb(0, 0, 0)" font-family="Helvetica" font-weight="bold" pointer-events="none" text-anchor="middle" font-size="12px"><text x="123" y="446.5">quizzes</text></g><path d="M 0 457 M 247 457 M 247 487 L 0 487" fill="none" stroke="rgb(0, 0, 0)" stroke-linecap="square" stroke-miterlimit="10" pointer-events="none"/><path d="M 0 457 M 30 457 M 30 487 M 0 487" fill="none" stroke="rgb(0, 0, 0)" stroke-linecap="square" stroke-miterlimit="10" pointer-events="none"/><g fill="rgb(0, 0, 0)" font-family="Helvetica" font-weight="bold" pointer-events="none" clip-path="url(#mx-clip-0-457-30-30-0)" text-anchor="middle" font-size="12px"><text x="14.5" y="476.5">PK</text></g><path d="M 30 457 M 247 457 M 247 487 M 30 487" fill="none" stroke="rgb(0, 0, 0)" stroke-linecap="square" stroke-miterlimit="10" pointer-events="none"/><g fill="rgb(0, 0, 0)" font-family="Helvetica" font-weight="bold" text-decoration="underline" pointer-events="none" clip-path="url(#mx-clip-36-457-211-30-0)" font-size="12px"><text x="37.5" y="476.5">quiz_id int NOT NULL</text></g><path d="M 0 487 M 30 487 M 30 517 M 0 517" fill="none" stroke="rgb(0, 0, 0)" stroke-linecap="square" stroke-miterlimit="10" pointer-events="none"/><path d="M 30 487 M 247 487 M 247 517 M 30 517" fill="none" stroke="rgb(0, 0, 0)" stroke-linecap="square" stroke-miterlimit="10" pointer-events="none"/><g fill="rgb(0, 0, 0)" font-family="Helvetica" pointer-events="none" clip-path="url(#mx-clip-36-487-211-30-0)" font-size="12px"><text x="37.5" y="506.5">num_questions NOT NULL</text></g><path d="M 0 517 M 30 517 M 30 542 M 0 542" fill="none" stroke="rgb(0, 0, 0)" stroke-linecap="square" stroke-miterlimit="10" pointer-events="none"/><path d="M 30 517 M 247 517 M 247 542 M 30 542" fill="none" stroke="rgb(0, 0, 0)" stroke-linecap="square" stroke-miterlimit="10" pointer-events="none"/><g fill="rgb(0, 0, 0)" font-family="Helvetica" pointer-events="none" clip-path="url(#mx-clip-36-517-211-25-0)" font-size="12px"><text x="37.5" y="534">name char(50)</text></g><path d="M 625 515 L 625 485 L 872 485 L 872 515" fill="rgb(255, 255, 255)" stroke="rgb(0, 0, 0)" stroke-miterlimit="10" pointer-events="none"/><path d="M 625 515 L 625 630 L 872 630 L 872 515" fill="none" stroke="rgb(0, 0, 0)" stroke-miterlimit="10" pointer-events="none"/><path d="M 625 515 L 872 515" fill="none" stroke="rgb(0, 0, 0)" stroke-miterlimit="10" pointer-events="none"/><path d="M 655 515 L 655 545 L 655 573 L 655 600 L 655 630" fill="none" stroke="rgb(0, 0, 0)" stroke-miterlimit="10" pointer-events="none"/><g fill="rgb(0, 0, 0)" font-family="Helvetica" font-weight="bold" pointer-events="none" text-anchor="middle" font-size="12px"><text x="748" y="504.5">questions</text></g><path d="M 625 515 M 872 515 M 872 545 L 625 545" fill="none" stroke="rgb(0, 0, 0)" stroke-linecap="square" stroke-miterlimit="10" pointer-events="none"/><path d="M 625 515 M 655 515 M 655 545 M 625 545" fill="none" stroke="rgb(0, 0, 0)" stroke-linecap="square" stroke-miterlimit="10" pointer-events="none"/><g fill="rgb(0, 0, 0)" font-family="Helvetica" font-weight="bold" pointer-events="none" clip-path="url(#mx-clip-625-515-30-30-0)" text-anchor="middle" font-size="12px"><text x="639.5" y="534.5">PK</text></g><path d="M 655 515 M 872 515 M 872 545 M 655 545" fill="none" stroke="rgb(0, 0, 0)" stroke-linecap="square" stroke-miterlimit="10" pointer-events="none"/><g fill="rgb(0, 0, 0)" font-family="Helvetica" font-weight="bold" text-decoration="underline" pointer-events="none" clip-path="url(#mx-clip-661-515-211-30-0)" font-size="12px"><text x="662.5" y="534.5">question_id int NOT NULL</text></g><path d="M 625 545 M 655 545 M 655 573 M 625 573" fill="none" stroke="rgb(0, 0, 0)" stroke-linecap="square" stroke-miterlimit="10" pointer-events="none"/><path d="M 655 545 M 872 545 M 872 573 M 655 573" fill="none" stroke="rgb(0, 0, 0)" stroke-linecap="square" stroke-miterlimit="10" pointer-events="none"/><g fill="rgb(0, 0, 0)" font-family="Helvetica" pointer-events="none" clip-path="url(#mx-clip-661-545-211-28-0)" font-size="12px"><text x="662.5" y="563.5">question string NOT NULL</text></g><path d="M 625 573 M 655 573 M 655 600 M 625 600" fill="none" stroke="rgb(0, 0, 0)" stroke-linecap="square" stroke-miterlimit="10" pointer-events="none"/><path d="M 655 573 M 872 573 M 872 600 M 655 600" fill="none" stroke="rgb(0, 0, 0)" stroke-linecap="square" stroke-miterlimit="10" pointer-events="none"/><g fill="rgb(0, 0, 0)" font-family="Helvetica" pointer-events="none" clip-path="url(#mx-clip-661-573-211-27-0)" font-size="12px"><text x="662.5" y="591">answer string NOT NULL</text></g><path d="M 625 600 M 655 600 M 655 630 M 625 630" fill="none" stroke="rgb(0, 0, 0)" stroke-linecap="square" stroke-miterlimit="10" pointer-events="none"/><path d="M 655 600 M 872 600 M 872 630 M 655 630" fill="none" stroke="rgb(0, 0, 0)" stroke-linecap="square" stroke-miterlimit="10" pointer-events="none"/><g fill="rgb(0, 0, 0)" font-family="Helvetica" pointer-events="none" clip-path="url(#mx-clip-661-600-211-30-0)" font-size="12px"><text x="662.5" y="619.5">topic string NOT NULL</text></g><path d="M 323 565 L 323 535 L 573 535 L 573 565" fill="rgb(255, 255, 255)" stroke="rgb(0, 0, 0)" stroke-miterlimit="10" pointer-events="none"/><path d="M 323 565 L 323 657 L 573 657 L 573 565" fill="none" stroke="rgb(0, 0, 0)" stroke-miterlimit="10" pointer-events="none"/><path d="M 323 565 L 573 565" fill="none" stroke="rgb(0, 0, 0)" stroke-miterlimit="10" pointer-events="none"/><path d="M 353 565 L 353 595 L 353 625 L 353 655" fill="none" stroke="rgb(0, 0, 0)" stroke-miterlimit="10" pointer-events="none"/><g fill="rgb(0, 0, 0)" font-family="Helvetica" font-weight="bold" pointer-events="none" text-anchor="middle" font-size="12px"><text x="447.5" y="554.5">quizzes_questions</text></g><path d="M 323 565 M 573 565 M 573 595 L 323 595" fill="none" stroke="rgb(0, 0, 0)" stroke-linecap="square" stroke-miterlimit="10" pointer-events="none"/><path d="M 323 565 M 353 565 M 353 595 M 323 595" fill="none" stroke="rgb(0, 0, 0)" stroke-linecap="square" stroke-miterlimit="10" pointer-events="none"/><g fill="rgb(0, 0, 0)" font-family="Helvetica" font-weight="bold" pointer-events="none" clip-path="url(#mx-clip-323-565-30-30-0)" text-anchor="middle" font-size="12px"><text x="337.5" y="584.5">PK</text></g><path d="M 353 565 M 573 565 M 573 595 M 353 595" fill="none" stroke="rgb(0, 0, 0)" stroke-linecap="square" stroke-miterlimit="10" pointer-events="none"/><g fill="rgb(0, 0, 0)" font-family="Helvetica" font-weight="bold" text-decoration="underline" pointer-events="none" clip-path="url(#mx-clip-359-565-214-30-0)" font-size="12px"><text x="360.5" y="584.5">id int NOT NULL</text></g><path d="M 323 595 M 353 595 M 353 625 M 323 625" fill="none" stroke="rgb(0, 0, 0)" stroke-linecap="square" stroke-miterlimit="10" pointer-events="none"/><g fill="rgb(0, 0, 0)" font-family="Helvetica" pointer-events="none" clip-path="url(#mx-clip-323-595-30-30-0)" text-anchor="middle" font-size="12px"><text x="337.5" y="614.5">FK1</text></g><path d="M 353 595 M 573 595 M 573 625 M 353 625" fill="none" stroke="rgb(0, 0, 0)" stroke-linecap="square" stroke-miterlimit="10" pointer-events="none"/><g fill="rgb(0, 0, 0)" font-family="Helvetica" pointer-events="none" clip-path="url(#mx-clip-359-595-214-30-0)" font-size="12px"><text x="360.5" y="614.5">question_id int NOT NULL</text></g><path d="M 323 625 M 353 625 M 353 655 M 323 655" fill="none" stroke="rgb(0, 0, 0)" stroke-linecap="square" stroke-miterlimit="10" pointer-events="none"/><g fill="rgb(0, 0, 0)" font-family="Helvetica" pointer-events="none" clip-path="url(#mx-clip-323-625-30-30-0)" text-anchor="middle" font-size="12px"><text x="337.5" y="644.5">FK2</text></g><path d="M 353 625 M 573 625 M 573 655 M 353 655" fill="none" stroke="rgb(0, 0, 0)" stroke-linecap="square" stroke-miterlimit="10" pointer-events="none"/><g fill="rgb(0, 0, 0)" font-family="Helvetica" pointer-events="none" clip-path="url(#mx-clip-359-625-214-30-0)" font-size="12px"><text x="360.5" y="644.5">quiz_id int NOT NULL</text></g><path d="M 247 472 L 277 472 L 293 640 L 323 640" fill="none" stroke="rgb(0, 0, 0)" stroke-miterlimit="10" pointer-events="none"/><ellipse cx="259" cy="472" rx="3" ry="3" fill="#ffffff" stroke="rgb(0, 0, 0)" pointer-events="none"/><path d="M 247 476 L 255 472 L 247 468" fill="none" stroke="rgb(0, 0, 0)" stroke-miterlimit="10" pointer-events="none"/><ellipse cx="311" cy="640" rx="3" ry="3" fill="#ffffff" stroke="rgb(0, 0, 0)" pointer-events="none"/><path d="M 323 636 L 315 640 L 323 644" fill="none" stroke="rgb(0, 0, 0)" stroke-miterlimit="10" pointer-events="none"/><path d="M 573 610 L 603 610 L 603 570 L 595 570 L 595 530 L 625 530" fill="none" stroke="rgb(0, 0, 0)" stroke-miterlimit="10" pointer-events="none"/><ellipse cx="585" cy="610" rx="3" ry="3" fill="#ffffff" stroke="rgb(0, 0, 0)" pointer-events="none"/><path d="M 573 614 L 581 610 L 573 606" fill="none" stroke="rgb(0, 0, 0)" stroke-miterlimit="10" pointer-events="none"/><ellipse cx="613" cy="530" rx="3" ry="3" fill="#ffffff" stroke="rgb(0, 0, 0)" pointer-events="none"/><path d="M 625 526 L 617 530 L 625 534" fill="none" stroke="rgb(0, 0, 0)" stroke-miterlimit="10" pointer-events="none"/><path d="M 351 234 L 351 204 L 568 204 L 568 234" fill="rgb(255, 255, 255)" stroke="rgb(0, 0, 0)" stroke-miterlimit="10" pointer-events="none"/><path d="M 351 234 L 351 325 L 568 325 L 568 234" fill="none" stroke="rgb(0, 0, 0)" stroke-miterlimit="10" pointer-events="none"/><path d="M 351 234 L 568 234" fill="none" stroke="rgb(0, 0, 0)" stroke-miterlimit="10" pointer-events="none"/><path d="M 381 234 L 381 264 L 381 294 L 381 324" fill="none" stroke="rgb(0, 0, 0)" stroke-miterlimit="10" pointer-events="none"/><g fill="rgb(0, 0, 0)" font-family="Helvetica" font-weight="bold" pointer-events="none" text-anchor="middle" font-size="12px"><text x="459" y="223.5">user_quizzes</text></g><path d="M 351 234 M 568 234 M 568 264 L 351 264" fill="none" stroke="rgb(0, 0, 0)" stroke-linecap="square" stroke-miterlimit="10" pointer-events="none"/><path d="M 351 234 M 381 234 M 381 264 M 351 264" fill="none" stroke="rgb(0, 0, 0)" stroke-linecap="square" stroke-miterlimit="10" pointer-events="none"/><g fill="rgb(0, 0, 0)" font-family="Helvetica" font-weight="bold" pointer-events="none" clip-path="url(#mx-clip-351-234-30-30-0)" text-anchor="middle" font-size="12px"><text x="365.5" y="253.5">PK</text></g><path d="M 381 234 M 568 234 M 568 264 M 381 264" fill="none" stroke="rgb(0, 0, 0)" stroke-linecap="square" stroke-miterlimit="10" pointer-events="none"/><g fill="rgb(0, 0, 0)" font-family="Helvetica" font-weight="bold" text-decoration="underline" pointer-events="none" clip-path="url(#mx-clip-387-234-181-30-0)" font-size="12px"><text x="388.5" y="253.5">id int NOT NULL</text></g><path d="M 351 264 M 381 264 M 381 294 M 351 294" fill="none" stroke="rgb(0, 0, 0)" stroke-linecap="square" stroke-miterlimit="10" pointer-events="none"/><g fill="rgb(0, 0, 0)" font-family="Helvetica" pointer-events="none" clip-path="url(#mx-clip-351-264-30-30-0)" text-anchor="middle" font-size="12px"><text x="365.5" y="283.5">FK1</text></g><path d="M 381 264 M 568 264 M 568 294 M 381 294" fill="none" stroke="rgb(0, 0, 0)" stroke-linecap="square" stroke-miterlimit="10" pointer-events="none"/><g fill="rgb(0, 0, 0)" font-family="Helvetica" pointer-events="none" clip-path="url(#mx-clip-387-264-181-30-0)" font-size="12px"><text x="388.5" y="283.5">user_id int NOT NULL</text></g><path d="M 351 294 M 381 294 M 381 324 M 351 324" fill="none" stroke="rgb(0, 0, 0)" stroke-linecap="square" stroke-miterlimit="10" pointer-events="none"/><g fill="rgb(0, 0, 0)" font-family="Helvetica" pointer-events="none" clip-path="url(#mx-clip-351-294-30-30-0)" text-anchor="middle" font-size="12px"><text x="365.5" y="313.5">FK2</text></g><path d="M 381 294 M 568 294 M 568 324 M 381 324" fill="none" stroke="rgb(0, 0, 0)" stroke-linecap="square" stroke-miterlimit="10" pointer-events="none"/><g fill="rgb(0, 0, 0)" font-family="Helvetica" pointer-events="none" clip-path="url(#mx-clip-387-294-181-30-0)" font-size="12px"><text x="388.5" y="313.5">quiz_id int NOT NULL</text></g><path d="M 611 264 L 611 234 L 828 234 L 828 264" fill="rgb(255, 255, 255)" stroke="rgb(0, 0, 0)" stroke-miterlimit="10" pointer-events="none"/><path d="M 611 264 L 611 354 L 828 354 L 828 264" fill="none" stroke="rgb(0, 0, 0)" stroke-miterlimit="10" pointer-events="none"/><path d="M 611 264 L 828 264" fill="none" stroke="rgb(0, 0, 0)" stroke-miterlimit="10" pointer-events="none"/><path d="M 641 264 L 641 294 L 641 324 L 641 354" fill="none" stroke="rgb(0, 0, 0)" stroke-miterlimit="10" pointer-events="none"/><g fill="rgb(0, 0, 0)" font-family="Helvetica" font-weight="bold" pointer-events="none" text-anchor="middle" font-size="12px"><text x="719" y="253.5">study_group_quizzes</text></g><path d="M 611 264 M 828 264 M 828 294 L 611 294" fill="none" stroke="rgb(0, 0, 0)" stroke-linecap="square" stroke-miterlimit="10" pointer-events="none"/><path d="M 611 264 M 641 264 M 641 294 M 611 294" fill="none" stroke="rgb(0, 0, 0)" stroke-linecap="square" stroke-miterlimit="10" pointer-events="none"/><g fill="rgb(0, 0, 0)" font-family="Helvetica" font-weight="bold" pointer-events="none" clip-path="url(#mx-clip-611-264-30-30-0)" text-anchor="middle" font-size="12px"><text x="625.5" y="283.5">PK</text></g><path d="M 641 264 M 828 264 M 828 294 M 641 294" fill="none" stroke="rgb(0, 0, 0)" stroke-linecap="square" stroke-miterlimit="10" pointer-events="none"/><g fill="rgb(0, 0, 0)" font-family="Helvetica" font-weight="bold" text-decoration="underline" pointer-events="none" clip-path="url(#mx-clip-647-264-181-30-0)" font-size="12px"><text x="648.5" y="283.5">id int NOT NULL</text></g><path d="M 611 294 M 641 294 M 641 324 M 611 324" fill="none" stroke="rgb(0, 0, 0)" stroke-linecap="square" stroke-miterlimit="10" pointer-events="none"/><g fill="rgb(0, 0, 0)" font-family="Helvetica" pointer-events="none" clip-path="url(#mx-clip-611-294-30-30-0)" text-anchor="middle" font-size="12px"><text x="625.5" y="313.5">FK1</text></g><path d="M 641 294 M 828 294 M 828 324 M 641 324" fill="none" stroke="rgb(0, 0, 0)" stroke-linecap="square" stroke-miterlimit="10" pointer-events="none"/><g fill="rgb(0, 0, 0)" font-family="Helvetica" pointer-events="none" clip-path="url(#mx-clip-647-294-181-30-0)" font-size="12px"><text x="648.5" y="313.5">study_group_id int NOT NULL</text></g><path d="M 611 324 M 641 324 M 641 354 M 611 354" fill="none" stroke="rgb(0, 0, 0)" stroke-linecap="square" stroke-miterlimit="10" pointer-events="none"/><g fill="rgb(0, 0, 0)" font-family="Helvetica" pointer-events="none" clip-path="url(#mx-clip-611-324-30-30-0)" text-anchor="middle" font-size="12px"><text x="625.5" y="343.5">FK2</text></g><path d="M 641 324 M 828 324 M 828 354 M 641 354" fill="none" stroke="rgb(0, 0, 0)" stroke-linecap="square" stroke-miterlimit="10" pointer-events="none"/><g fill="rgb(0, 0, 0)" font-family="Helvetica" pointer-events="none" clip-path="url(#mx-clip-647-324-181-30-0)" font-size="12px"><text x="648.5" y="343.5">quiz_id int NOT NULL</text></g><path d="M 265 75 L 285 75 Q 295 75 296.26 84.92 L 319.74 269.08 Q 321 279 331 279 L 351 279" fill="none" stroke="rgb(0, 0, 0)" stroke-miterlimit="10" pointer-events="none"/><path d="M 269 71 L 269 79" fill="none" stroke="rgb(0, 0, 0)" stroke-miterlimit="10" pointer-events="none"/><ellipse cx="339" cy="279" rx="3" ry="3" fill="#ffffff" stroke="rgb(0, 0, 0)" pointer-events="none"/><path d="M 351 275 L 343 279 L 351 283" fill="none" stroke="rgb(0, 0, 0)" stroke-miterlimit="10" pointer-events="none"/><path d="M 351 309 L 331 309 Q 321 309 318.39 318.65 L 279.61 462.35 Q 277 472 267 472 L 247 472" fill="none" stroke="rgb(0, 0, 0)" stroke-miterlimit="10" pointer-events="none"/><path d="M 347 313 L 347 305" fill="none" stroke="rgb(0, 0, 0)" stroke-miterlimit="10" pointer-events="none"/><ellipse cx="259" cy="472" rx="3" ry="3" fill="#ffffff" stroke="rgb(0, 0, 0)" pointer-events="none"/><path d="M 247 476 L 255 472 L 247 468" fill="none" stroke="rgb(0, 0, 0)" stroke-miterlimit="10" pointer-events="none"/><path d="M 247 472 L 277 472 L 581 339 L 611 339" fill="none" stroke="rgb(0, 0, 0)" stroke-miterlimit="10" pointer-events="none"/><ellipse cx="259" cy="472" rx="3" ry="3" fill="#ffffff" stroke="rgb(0, 0, 0)" pointer-events="none"/><path d="M 247 476 L 255 472 L 247 468" fill="none" stroke="rgb(0, 0, 0)" stroke-miterlimit="10" pointer-events="none"/><ellipse cx="599" cy="339" rx="3" ry="3" fill="#ffffff" stroke="rgb(0, 0, 0)" pointer-events="none"/><path d="M 611 335 L 603 339 L 611 343" fill="none" stroke="rgb(0, 0, 0)" stroke-miterlimit="10" pointer-events="none"/><path d="M 889 45 L 859 45 L 858 309 L 828 309" fill="none" stroke="rgb(0, 0, 0)" stroke-miterlimit="10" pointer-events="none"/><ellipse cx="877" cy="45" rx="3" ry="3" fill="#ffffff" stroke="rgb(0, 0, 0)" pointer-events="none"/><path d="M 889 41 L 881 45 L 889 49" fill="none" stroke="rgb(0, 0, 0)" stroke-miterlimit="10" pointer-events="none"/><ellipse cx="840" cy="309" rx="3" ry="3" fill="#ffffff" stroke="rgb(0, 0, 0)" pointer-events="none"/><path d="M 828 313 L 836 309 L 828 305" fill="none" stroke="rgb(0, 0, 0)" stroke-miterlimit="10" pointer-events="none"/></g></svg>